PathFileType	4	(X/Y/Z)	c:\Git\powerlifing_model_clean\simulations\HC835B\Session1\HC835B_OGR_0005\marker_experimental.trc
DataRate	CameraRate	NumFrames	NumMarkers	Units	OrigDataRate	OrigDataStartFrame	OrigNumFrames
240.000000	240.000000	4	38	mm	240.000000	190	218
Frame#	Time	RPSI			LPSI			RASI			LASI			RTH1			RTH2			RTH3			RTH4			RSK1			RSK2			RSK3			RSK4			RCAL1			RCAL2			RCAL3			RST			RPT			RTN			RFMB			RSMB			RVMB			RFMH			RSMH			RVMH			RPM			LTH1			LTH2			LTH3			LTH4			LSK1			LSK2			LSK3			LSK4			LCAL1			LCAL2			LCAL3			LFMH			LVMH			
		X1	Y1	Z1	X2	Y2	Z2	X3	Y3	Z3	X4	Y4	Z4	X5	Y5	Z5	X6	Y6	Z6	X7	Y7	Z7	X8	Y8	Z8	X9	Y9	Z9	X10	Y10	Z10	X11	Y11	Z11	X12	Y12	Z12	X13	Y13	Z13	X14	Y14	Z14	X15	Y15	Z15	X16	Y16	Z16	X17	Y17	Z17	X18	Y18	Z18	X19	Y19	Z19	X20	Y20	Z20	X21	Y21	Z21	X22	Y22	Z22	X23	Y23	Z23	X24	Y24	Z24	X25	Y25	Z25	X26	Y26	Z26	X27	Y27	Z27	X28	Y28	Z28	X29	Y29	Z29	X30	Y30	Z30	X31	Y31	Z31	X32	Y32	Z32	X33	Y33	Z33	X34	Y34	Z34	X35	Y35	Z35	X36	Y36	Z36	X37	Y37	Z37	X38	Y38	Z38	

191	0.7916666666666666	529.2301025390626	1192.326782226563	-2389.92822265625	416.6325988769532	1193.664306640625	-2395.663818359375	597.1432495117189	1124.631103515625	-2578.2041015625	363.9518432617188	1114.738647460938	-2587.79150390625	666.6179199218751	835.1790771484377	-2559.273681640625	646.7550659179689	839.2595825195315	-2617.237060546875	652.4248046875001	762.2358398437501	-2599.82958984375	623.4704589843751	764.2174682617189	-2650.881103515625	595.5713500976564	317.2813415527344	-2648.20751953125	603.8944091796876	319.1828613281251	-2709.378662109375	591.4179077148439	267.4039001464844	-2679.18212890625	589.2832641601564	272.0096435546876	-2739.271240234375	524.1134033203126	111.9109802246094	-2669.795654296875	482.6676025390626	90.15538787841798	-2686.802490234375	542.7874755859376	68.35254669189455	-2683.553955078125	483.6286010742189	121.960319519043	-2751.0859375	574.4769287109376	82.75948333740236	-2738.0078125	505.8756408691407	146.8817596435547	-2801.71484375	506.6449584960939	134.162109375	-2835.4208984375	558.9999389648439	142.7295684814453	-2839.04150390625	579.0740356445314	63.50170898437501	-2787.267578125	496.4977416992189	117.0886459350586	-2893.43359375	553.7520141601564	117.4652252197266	-2903.55908203125	596.9423828125001	65.61621856689455	-2864.960205078125	548.0557861328126	131.0354309082032	-2956.82470703125	294.7059631347657	848.4017333984377	-2405.100830078125	305.7936706542969	816.762145996094	-2455.80810546875	303.4030761718751	763.2340698242189	-2393.593994140625	327.6600952148438	733.7235107421876	-2440.78369140625	344.0503234863282	515.2058105468751	-2027.89306640625	332.6520385742188	464.3241577148439	-2040.13232421875	344.5679931640626	471.5900878906251	-1991.945190429688	348.4090576171876	417.8058166503907	-2009.150024414063	410.066131591797	447.8610229492189	-1865.629028320313	392.4761962890626	437.2743530273439	-1822.198120117188	448.5865783691407	436.0835876464845	-1839.82958984375	443.968963623047	224.0551910400391	-1896.421264648438	355.3273925781251	247.3356018066407	-1831.88134765625	
192	0.7958333333333333	530.4541015625001	1189.076904296875	-2403.752685546875	417.8237609863282	1191.09375	-2409.430419921875	597.2916870117189	1121.663452148438	-2592.114501953125	363.9966125488282	1113.274658203125	-2601.82958984375	667.3741455078126	832.3079223632815	-2572.034423828125	648.1754760742189	836.3543701171877	-2630.1748046875	652.7111206054689	759.4307861328126	-2612.385009765625	624.4891967773439	761.5373535156251	-2663.874755859375	595.7879638671876	314.2911987304688	-2662.6328125	603.9080810546876	316.7140197753907	-2723.765625	591.4755859375001	264.6769104003907	-2693.972900390625	589.2856445312501	269.7994079589844	-2754.0322265625	524.8108520507814	108.8238220214844	-2686.067138671875	483.2743225097657	86.8508987426758	-2702.955322265625	543.5975341796876	65.47671508789064	-2700.438232421875	484.2316894531251	119.4098587036133	-2767.213623046875	574.7218017578126	80.65160369873048	-2755.05908203125	505.2899780273439	145.0763702392578	-2817.435791015625	505.7188110351564	132.8590545654297	-2851.103271484375	558.0971679687501	141.8116455078125	-2855.271240234375	578.8856811523439	61.99219131469728	-2804.529296875	495.109100341797	116.3541488647461	-2909.23681640625	552.1883544921876	117.2917404174805	-2919.942138671875	595.8920898437501	64.62596893310548	-2882.636962890625	545.8348999023439	131.5254058837891	-2972.791259765625	294.5594787597657	845.9871215820315	-2420.190185546875	305.0430908203126	814.598571777344	-2471.20263671875	302.7085571289063	760.6612548828126	-2409.3037109375	326.2389526367188	731.3293457031251	-2456.908935546875	344.1291809082032	519.1294555664064	-2042.568237304688	332.2590637207032	468.1384582519532	-2053.332763671875	344.4636840820313	476.4012145996095	-2005.500366210938	347.7919616699219	422.3195190429689	-2021.305541992188	410.632293701172	455.4417724609376	-1878.7919921875	393.1203918457032	446.1345825195314	-1835.0107421875	449.0814514160157	443.999481201172	-1852.953491210938	442.2335205078126	230.8973388671876	-1904.845092773438	354.1222839355469	256.4325256347657	-1840.370483398438	
193	0.8	531.8926391601564	1185.65234375	-2417.529052734375	419.0364990234376	1188.369140625	-2423.19140625	597.4306030273439	1118.578491210938	-2605.985107421875	364.0070190429688	1111.633056640625	-2615.800537109375	667.9921264648439	829.6919555664065	-2585.08984375	649.4602661132814	833.7459106445315	-2643.418212890625	652.8352050781251	756.7171630859376	-2625.38623046875	625.4399414062501	759.0718994140626	-2677.318115234375	595.9857177734376	311.1792602539063	-2676.452392578125	603.8895874023439	314.0205383300782	-2737.66552734375	591.6265869140626	261.9115600585938	-2708.163330078125	589.1870727539064	267.3693237304688	-2768.14013671875	525.0494384765626	105.4253234863282	-2701.328125	483.4225463867189	83.7827835083008	-2717.883544921875	543.8274536132814	62.34152603149415	-2716.2333984375	483.3694458007814	116.8787002563477	-2781.771240234375	574.5315551757814	78.1543426513672	-2770.840576171875	504.5864257812501	143.1168975830078	-2832.102783203125	505.7461242675782	131.3810119628907	-2866.3173828125	557.1613769531251	140.1628723144532	-2870.201171875	578.5372314453126	59.9644012451172	-2820.519287109375	493.5477905273439	115.395378112793	-2923.8544921875	550.9859619140626	116.5074768066407	-2935.046142578125	594.7611694335939	63.82368087768556	-2898.416259765625	544.4019775390626	131.5514221191407	-2987.628173828125	294.3868713378907	843.382019042969	-2435.1806640625	304.1825256347657	812.2759399414065	-2486.486083984375	301.8812255859376	757.9149169921876	-2424.95703125	324.7330932617188	728.6406860351564	-2472.864013671875	344.2165832519532	522.7491455078126	-2057.57080078125	331.8247680664063	471.4414062500001	-2067.01123046875	344.3867492675782	481.0148925781251	-2019.388793945313	347.2886047363282	426.5930480957032	-2033.827880859375	411.2622070312501	463.0850219726564	-1892.354248046875	393.7564392089845	454.8513183593751	-1848.367553710938	449.6240844726564	451.7282714843751	-1866.431396484375	440.4499511718751	237.6372222900391	-1913.607666015625	352.8474426269532	265.6109313964844	-1849.52734375	
194	0.8041666666666667	533.2759399414064	1181.804443359375	-2431.27734375	420.3428955078126	1185.347045898438	-2436.827392578125	597.5593261718751	1115.354125976563	-2619.81982421875	364.0310974121094	1109.768310546875	-2629.687255859375	668.4714965820314	827.010925292969	-2598.389404296875	650.6443481445314	831.2150878906252	-2656.978759765625	652.9553833007814	754.1893920898439	-2638.776611328125	626.2147827148439	756.6973266601564	-2691.03564453125	596.3376464843751	308.1050415039063	-2689.917724609375	603.7827148437501	311.2055053710938	-2751.123291015625	591.6060180664064	258.8910827636719	-2721.78662109375	587.0687255859376	263.4196166992188	-2781.63525390625	524.7602539062501	102.0374221801758	-2715.503173828125	483.1380004882814	80.51108551025392	-2732.18896484375	543.4897460937501	59.03182983398439	-2730.825439453125	482.9715576171876	114.1947250366211	-2795.75390625	574.1157226562501	75.21301269531251	-2785.355712890625	504.1488342285157	140.9367980957032	-2846.02197265625	505.1074829101564	129.3760223388672	-2880.111083984375	556.6154785156251	138.1477355957032	-2884.1181640625	577.9558715820314	57.49338531494142	-2835.1923828125	493.5701599121095	113.5509719848633	-2938.264892578125	550.1745605468751	115.1905822753907	-2949.078857421875	593.9850463867189	62.04296875000001	-2913.027099609375	543.5468750000001	130.8398742675782	-3001.3984375	294.1231079101563	840.6678466796877	-2450.12646484375	303.2128295898438	809.7398071289065	-2501.679443359375	301.0634765625001	754.9653930664064	-2440.4404296875	323.0019226074219	725.9156494140626	-2488.9169921875	344.1994934082032	526.1416015625001	-2072.964111328125	331.4859924316407	474.6991577148439	-2080.950927734375	344.2811279296876	485.3113098144532	-2033.748413085938	346.8758239746094	430.659881591797	-2046.71533203125	411.8833312988282	470.4543457031251	-1906.369140625	394.3333129882814	463.3718261718751	-1862.203002929688	450.1787719726564	459.3070068359376	-1880.247924804688	438.6121826171876	244.2660064697266	-1922.753173828125	351.3456420898438	274.4795227050782	-1859.247802734375	
